<svg width="391" height="165" viewBox="0 0 391 165" fill="none" xmlns="http://www.w3.org/2000/svg">
<path d="M365.736 10.6109C357.292 5.03288 347.583 2.17609 337.674 2.24841C334.365 2.27553 331.039 2.62811 327.721 3.30615L312.135 6.52457L309.875 4.68935L303.962 5.90981L301.702 8.67621L43.0444 62.1779C29.773 64.9172 18.3187 72.6558 10.806 83.9655C3.2843 95.2661 0.59927 108.791 3.2391 122.044C5.87892 135.297 13.5272 146.688 24.7826 154.12C33.0637 159.589 42.6557 162.482 52.5189 162.464C55.9543 162.464 59.4168 162.103 62.816 161.397L191.01 134.891L193.27 136.726L199.165 135.505L201.425 132.739L246.302 123.463L248.562 125.299L254.457 124.078L256.717 121.312L347.501 102.544C360.773 99.8045 372.218 92.0658 379.74 80.7561C387.252 69.4465 389.947 55.9219 387.298 42.6685C384.667 29.4422 377.01 18.0512 365.736 10.6109Z" fill="white"/>
<path d="M368.412 56.2114C365.356 56.2114 362.879 58.6885 362.879 61.7442C362.879 64.7999 365.356 67.277 368.412 67.277C371.468 67.277 373.945 64.7999 373.945 61.7442C373.945 58.6885 371.468 56.2114 368.412 56.2114ZM368.412 66.3187C365.89 66.3187 363.838 64.2756 363.838 61.7442C363.838 59.2129 365.881 57.1697 368.412 57.1697C370.944 57.1697 372.987 59.2129 372.987 61.7442C372.987 64.2756 370.944 66.3187 368.412 66.3187ZM370.41 61.7623C370.708 61.5092 370.862 61.1023 370.862 60.5509C370.862 59.9271 370.672 59.4841 370.293 59.2038C369.922 58.9326 369.361 58.788 368.629 58.788H366.306V64.9084H367.309V62.2866H368.259L369.841 64.9084H370.98L369.262 62.2143C369.714 62.1601 370.103 62.0064 370.401 61.7533L370.41 61.7623ZM368.439 61.4368H367.309V59.6468H368.53C368.674 59.6468 368.828 59.6559 368.982 59.6649C369.144 59.683 369.28 59.7191 369.416 59.7734C369.542 59.8367 369.651 59.918 369.732 60.0265C369.813 60.135 369.859 60.2797 369.859 60.4695C369.859 60.6955 369.822 60.8673 369.741 60.9939C369.66 61.1204 369.56 61.2108 369.425 61.2831C369.298 61.3555 369.144 61.3916 368.973 61.4097C368.801 61.4278 368.62 61.4368 368.439 61.4368Z" fill="#004A98"/>
<path d="M55.9726 121.312C55.5205 119.052 52.4287 118.401 48.1525 117.488C46.697 117.181 45.1873 116.855 43.5961 116.43C36.3004 114.387 32.5396 110.898 31.3824 105.094C29.719 96.7312 36.1287 88.3235 45.6845 86.3527C52.727 84.8972 59.4532 86.8861 63.657 91.6685L63.9282 91.9759L57.2563 100.555L56.8676 100.058C56.0991 99.0817 53.17 95.9718 47.7276 97.1019C46.0551 97.4454 44.6358 98.2048 43.7498 99.2354C42.9723 100.13 42.6378 101.197 42.8277 102.146C43.2978 104.497 46.8959 105.256 51.8863 106.314C52.7813 106.504 53.7215 106.703 54.6888 106.92C62.1382 108.683 66.3601 112.543 67.5896 118.718C68.4485 123.012 67.3184 127.397 64.4164 131.049C61.415 134.828 56.6687 137.549 51.0455 138.715C49.0114 139.131 47.0496 139.339 45.1601 139.348C38.1085 139.357 32.1961 136.509 28.4714 131.139L28.2454 130.814L35.7038 122.768L36.0564 123.247C39.1572 127.388 43.8493 128.942 49.6171 127.749C54.2097 126.8 56.4517 123.735 55.9726 121.321V121.312ZM102.811 112.136C102.802 113.863 102.829 115.671 103.119 117.108C103.661 119.83 105.108 122.081 107.187 123.437C109.33 124.829 111.997 125.254 114.899 124.657C118.054 124.006 118.994 123.247 119.301 123.003L119.491 122.849L119.518 112.534L118.922 112.661C118.849 112.679 118.723 112.715 118.56 112.76C118.28 112.85 117.855 112.977 117.376 113.076C115.875 113.393 115.305 112.172 115.097 111.097C114.98 110.491 114.953 109.948 114.953 108.963L114.935 93.9919C114.962 92.7443 114.79 89.8514 114.456 88.1608C112.738 79.5361 104.547 74.7085 94.9914 76.6884C89.9287 77.7371 86.0322 80.7024 83.6004 85.3221C83.6184 82.5828 81.1142 80.5396 78.4292 81.0911L71.6488 82.5014V133.182L83.6184 130.714V102.517C83.6003 95.2847 87.1713 89.8604 92.7765 88.7032C95.4705 88.1518 97.6764 88.3597 99.3399 89.327C100.958 90.2672 102.007 91.9036 102.459 94.1818C102.622 94.9954 102.82 96.0079 102.757 97.0747L102.793 112.145L102.811 112.136ZM171.781 61.7987V97.5991C171.781 98.5845 171.818 99.1269 171.944 99.7417C172.107 100.537 172.423 101.098 172.893 101.405C173.354 101.703 173.987 101.776 174.783 101.613C175.569 101.45 176.256 101.215 176.88 100.989L177.549 100.745V111.386L177.323 111.53C176.22 112.227 174.566 112.823 172.694 113.212C170.534 113.655 168.473 113.492 166.565 112.715C164.82 111.856 163.654 110.744 162.714 109.026C159.893 113.818 154.849 116.991 147.688 118.465C145.917 118.826 144.163 119.016 142.445 119.016C138.051 119.016 133.893 117.859 130.394 115.59C125.377 112.335 122.041 107.173 120.739 100.646C119.301 93.4314 120.838 85.6023 124.952 79.1745C129.074 72.7377 135.457 68.2084 142.472 66.7619C150.681 65.0714 156.91 67.0512 159.821 69.8538C159.839 66.5901 162.153 63.7786 165.345 63.1186L171.799 61.7896L171.781 61.7987ZM160.291 86.7595C159.622 83.4055 157.814 80.7837 155.075 79.1836C153.185 78.0806 150.97 77.5292 148.538 77.5292C147.39 77.5292 146.188 77.6557 144.958 77.9089C137.464 79.4548 130.728 87.5732 132.645 97.2013C134.101 104.497 140.131 108.357 147.652 106.811C156.765 104.931 162.198 96.3153 160.291 86.7595ZM361.053 51.6372L325.063 59.0685C325.081 59.2221 325.117 59.4753 325.19 59.8188C325.85 63.1457 327.54 65.659 330.062 67.0783C332.657 68.5429 336.165 68.8774 340.206 68.0366C344.744 67.0964 348.27 64.6464 350.991 60.533L351.29 60.081L359.435 66.3641L359.182 66.7529C354.906 73.2801 348.614 77.5653 340.983 79.1384C338.832 79.5814 336.743 79.8074 334.736 79.8074C330.234 79.8074 326.166 78.7225 322.731 76.5528C317.776 73.4248 314.459 68.2536 313.13 61.6088C309.947 45.6252 319.702 30.0665 334.89 26.9295C341.318 25.6005 347.212 26.6583 351.94 29.9942C356.443 33.1674 359.598 38.3024 360.827 44.468C361.261 46.6558 361.37 49.2595 361.108 51.2755L361.062 51.6281L361.053 51.6372ZM348.776 44.8749V44.8478C347.854 40.2281 344.039 37.3532 339.275 37.3622C338.452 37.3622 337.602 37.4526 336.725 37.6334C330.56 38.9081 325.904 43.6634 324.674 49.8562L348.776 44.8839V44.8749ZM389.513 42.2079C383.817 13.6309 355.9 -4.80267 327.287 1.10077L309.884 4.69889V15.3938L329.33 11.3708C352.284 6.63356 374.659 21.4238 379.225 44.3324C383.79 67.2411 368.837 89.7338 345.892 94.4711L254.457 113.375V124.07L347.945 104.741C361.804 101.875 373.764 93.8021 381.62 81.9861C389.477 70.1792 392.279 56.0489 389.522 42.2079H389.513ZM248.562 90.7464V125.299L199.165 135.515V124.82L236.755 117.045V48.3826L245.028 46.6739C246.827 46.3033 248.508 47.6503 248.535 49.4855C251.003 46.0592 255.307 43.4646 260.387 42.4159C266.354 41.1863 272.294 42.2893 277.112 45.5258C282.039 48.8346 285.466 54.2137 286.749 60.6505C288.115 67.4942 286.749 75.034 283.007 81.3443C279.011 88.0885 272.8 92.6268 265.513 94.1275C258.471 95.583 251.871 94.2179 248.553 90.7373L248.562 90.7464ZM262.467 83.1072C271.67 81.2086 276.425 71.6076 274.952 64.1763C273.668 57.7485 268.958 53.9063 262.783 53.9154C261.725 53.9154 260.631 54.0329 259.501 54.268C250.786 56.067 246.393 65.7494 247.902 73.3072C249.367 80.6662 255.225 84.5988 262.467 83.1072ZM193.271 102.165V136.735L63.2592 163.622C59.6792 164.363 56.0811 164.734 52.5101 164.734C42.2581 164.752 32.2503 161.778 23.5353 156.019C11.7826 148.253 3.79081 136.356 1.03345 122.515C-1.7239 108.674 1.07866 94.5434 8.93485 82.7365C16.791 70.9206 28.7426 62.8474 42.6107 59.9815L303.972 5.91936V67.8468C303.972 68.796 303.999 69.8538 304.125 70.4776C304.36 71.68 304.957 72.6111 305.843 73.1536C306.783 73.7412 308.049 73.8858 309.504 73.5875C310.472 73.3886 311.349 73.1084 312.099 72.7648L312.822 72.4484V83.8304L312.623 83.9841C311.665 84.6079 310.155 85.1232 307.877 85.5933C306.666 85.8464 305.49 85.9639 304.36 85.973C301.829 85.973 299.542 85.3582 297.616 84.1468C294.877 82.411 293.042 79.5904 292.327 75.9742C292.065 74.6452 291.975 72.8462 291.921 70.5499H291.884V19.1275L44.6448 70.2335C33.525 72.5298 23.9421 79.0118 17.6409 88.4772C11.3487 97.9517 9.09758 109.279 11.3035 120.372C13.5184 131.474 19.9191 141.012 29.3483 147.24C38.7685 153.469 50.0872 155.63 61.198 153.334L181.455 128.463V59.8007L189.727 58.0921C191.526 57.7214 193.207 59.0685 193.234 60.9037C195.703 57.4773 200.006 54.8827 205.087 53.834C211.053 52.6045 217.002 53.7074 221.812 56.9439C226.739 60.2528 230.165 65.6319 231.449 72.0687C232.814 78.9124 231.449 86.4521 227.706 92.7624C223.71 99.5066 217.499 104.045 210.213 105.546C203.17 107.001 196.57 105.636 193.244 102.155L193.271 102.165ZM207.175 94.5253C216.378 92.6268 221.133 83.0258 219.66 75.5945C218.376 69.1667 213.666 65.3245 207.491 65.3335C206.434 65.3335 205.34 65.4511 204.21 65.6861C200.241 66.5088 196.851 69.0492 194.654 72.8462C192.566 76.4533 191.824 80.7837 192.611 84.7254C193.307 88.215 195.106 91.108 197.673 92.8709C200.322 94.688 203.613 95.2666 207.184 94.5253H207.175Z" fill="#004A98"/>
</svg>
